<?xml version="1.0" encoding="UTF-8" standalone="no"?>
<svg
   xmlns:dc="http://purl.org/dc/elements/1.1/"
   xmlns:cc="http://creativecommons.org/ns#"
   xmlns:rdf="http://www.w3.org/1999/02/22-rdf-syntax-ns#"
   xmlns:svg="http://www.w3.org/2000/svg"
   xmlns="http://www.w3.org/2000/svg"
   viewBox="0 0 1333.3333 933.33331"
   height="933.33331"
   width="1333.3333"
   xml:space="preserve"
   id="svg2"
   version="1.1"><metadata
     id="metadata8"><rdf:RDF><cc:Work
         rdf:about=""><dc:format>image/svg+xml</dc:format><dc:type
           rdf:resource="http://purl.org/dc/dcmitype/StillImage" /></cc:Work></rdf:RDF></metadata><defs
     id="defs6"><clipPath
       id="clipPath18"
       clipPathUnits="userSpaceOnUse"><path
         id="path16"
         d="M 0,700 H 1000 V 0 H 0 Z" /></clipPath><clipPath
       id="clipPath70"
       clipPathUnits="userSpaceOnUse"><path
         id="path68"
         d="M 0,700 H 1000 V 0 H 0 Z" /></clipPath><clipPath
       id="clipPath118"
       clipPathUnits="userSpaceOnUse"><path
         id="path116"
         d="M 0,700 H 1000 V 0 H 0 Z" /></clipPath></defs><g
     transform="matrix(1.3333333,0,0,-1.3333333,0,933.33333)"
     id="g10"><g
       id="g12"><g
         clip-path="url(#clipPath18)"
         id="g14"><g
           transform="translate(633.4142,389.0546)"
           id="g20"><path
             id="path22"
             style="fill:#ee3638;fill-opacity:1;fill-rule:nonzero;stroke:none"
             d="m 0,0 c -10.464,-11.506 -21.628,-22.341 -32.8,-33.151 -9.746,-9.431 -19.082,-21.147 -30.153,-28.964 -4.076,-2.878 -7.942,-3.866 -9.717,1.693 -1.127,3.529 13.561,19.92 15.926,23.139 5.506,7.494 11.205,14.847 16.658,22.381 29.766,41.12 68.144,97.795 65.696,150.989 -0.949,20.648 -9.771,41.767 -25.143,55.83 -42.535,38.912 -97.373,-10.412 -130.966,-36.514 -26.488,-20.582 -43.587,0.036 -65.068,16.451 -13.454,10.282 -27.085,20.635 -42.117,28.539 -18.123,9.53 -40.059,14.019 -58.962,3.979 -19.806,-10.52 -32.284,-31.627 -36.657,-53.132 -6.453,-31.731 7.927,-62.424 21.899,-90.016 33.786,-66.722 80.89,-124.078 131.002,-179.098 1.112,-1.221 3.864,-3.238 4.371,-4.788 1.994,-6.085 -1.486,-6.564 -6.174,-3.881 -14.028,8.028 -35.859,25.1 -49.088,35.471 -70.753,55.467 -144.039,134.333 -149.733,229.409 -4.894,81.745 69.521,152.637 151.034,121.337 15.56,-5.975 29.145,-15.958 42.936,-25.099 12.474,-8.268 27.141,-20.73 43.159,-15.716 16.676,5.22 32.553,17.369 48.465,24.759 34.097,15.835 68.996,20.76 103.483,2.831 C 70.021,214.233 74.614,141.003 52.606,81.586 41.316,51.104 21.693,23.853 0,0" /></g><g
           transform="translate(555.1411,456.1418)"
           id="g24"><path
             id="path26"
             style="fill:#373535;fill-opacity:1;fill-rule:nonzero;stroke:none"
             d="m 0,0 c 3.12,-5.477 -0.591,-13.159 -7.071,-14.668 -3.073,-0.716 -6.194,-0.6 -9.308,-0.604 -14.038,-0.02 -28.081,0.166 -42.115,-0.092 -11.008,-0.203 -21.2,-3.341 -30.081,-10.108 -7.253,-5.527 -11.859,-12.924 -15.004,-21.343 -1.603,-4.291 -2.801,-8.693 -3.644,-13.489 -0.584,2.532 -0.561,4.821 -0.421,7.081 0.092,1.493 -0.424,1.734 -1.779,1.729 -11.699,-0.044 -23.398,-0.023 -35.097,0.004 -2.918,0.007 -5.85,-0.024 -8.695,0.785 -5.314,1.511 -8.1,5.663 -7.48,11.139 0.131,1.157 0.316,2.309 0.489,3.461 0.01,0.061 0.139,0.104 0.275,0.198 0.58,-1.529 0.804,-3.189 1.954,-4.462 2.257,-2.497 5.127,-3.723 8.401,-3.862 13.933,-0.59 27.875,-0.193 41.814,-0.279 0.497,-0.003 1.013,-0.046 1.143,0.608 0.734,3.678 1.964,7.199 3.574,10.781 -0.677,0 -1.152,-10e-4 -1.628,0 -13.843,0.007 -27.687,0.017 -41.531,0.02 -2.145,10e-4 -4.282,0.086 -6.393,0.505 -6.722,1.336 -9.27,6.224 -8.47,12.651 0.101,0.808 0.153,1.654 0.607,2.485 0.122,-0.258 0.247,-0.457 0.312,-0.674 1.397,-4.696 4.82,-7.357 9.793,-7.712 5.842,-0.418 11.691,-0.256 17.537,-0.278 10.871,-0.04 21.741,0.007 32.611,-0.03 1.039,-0.004 1.678,0.329 2.31,1.135 2.999,3.83 6.548,7.079 10.678,9.658 0.719,0.449 0.969,0.919 0.967,1.746 -0.05,16.915 -0.016,33.83 -0.144,50.744 -0.029,3.899 -0.252,7.791 0.415,11.65 0.924,5.354 6.502,8.558 11.642,6.592 -0.716,-0.455 -1.365,-0.839 -1.984,-1.267 -1.916,-1.325 -3.026,-3.04 -3.021,-5.491 0.043,-19.401 0.04,-38.802 0.052,-58.202 0.002,-1.77 0.006,-1.775 1.602,-1.252 3.156,1.035 6.385,1.75 9.695,1.987 1.443,0.103 1.918,0.576 1.906,2.105 -0.092,12.625 -0.068,25.25 -0.112,37.875 -0.015,4.141 -0.143,8.282 -0.19,12.423 -0.021,1.903 0.177,3.8 0.585,5.655 1.117,5.086 6.44,7.985 11.41,6.263 -0.93,-0.75 -2.257,-1.019 -2.764,-2.281 -1.31,-0.808 -1.899,-2.058 -1.988,-3.521 -0.08,-1.311 0.001,-2.63 0.001,-3.945 0,-17.449 0.014,-34.898 -0.034,-52.346 -0.004,-1.352 0.36,-1.685 1.694,-1.674 6.92,0.057 13.841,-0.04 20.762,0.002 9.012,0.055 18.032,-0.306 27.032,0.339 2.573,0.184 5.062,0.876 6.766,3.108 0.132,0.055 0.281,0.087 0.393,0.168 C -0.946,-3.526 -0.715,-1.632 0,0" /></g><g
           transform="translate(499.5878,351.2763)"
           id="g28"><path
             id="path30"
             style="fill:#373535;fill-opacity:1;fill-rule:nonzero;stroke:none"
             d="m 0,0 c -5.265,-1.952 -10.796,1.168 -11.729,6.642 -0.667,3.913 -0.495,7.846 -0.394,11.797 0.166,6.528 0.085,13.062 0.094,19.593 0.007,4.582 -0.032,9.164 10e-4,13.745 0.007,0.904 -0.159,1.179 -1.128,0.967 -3.867,-0.848 -7.598,-2.076 -11.214,-3.686 -0.612,-0.272 -0.738,-0.62 -0.732,-1.218 0.127,-10.867 -0.217,-21.735 0.103,-32.602 0.072,-2.433 0.096,-4.875 -0.177,-7.302 -0.389,-3.45 1.159,-5.793 4.124,-7.362 0.285,-0.15 0.67,-0.186 0.812,-0.556 -4.327,-1.92 -10.953,0.783 -11.695,7.107 -0.361,3.066 -0.315,6.124 -0.308,9.19 0.019,8.92 0.052,17.839 0.076,26.759 0.001,0.335 -0.036,0.67 -0.054,0.985 -0.46,0.191 -0.675,-0.143 -0.926,-0.34 -4.658,-3.666 -8.376,-8.124 -11.257,-13.299 -0.467,-0.84 -0.646,-1.684 -0.646,-2.64 -0.001,-6.922 0.068,-13.846 -0.117,-20.762 -0.086,-3.247 1.247,-5.387 3.945,-6.895 0.329,-0.184 0.653,-0.38 1.023,-0.595 -4.166,-2.074 -10.232,0.831 -11.325,5.367 -0.759,3.151 -0.984,6.363 -0.82,9.575 0.275,5.399 0.785,10.793 2.597,15.935 5.781,16.401 17.093,26.461 34.3,29.648 6.506,1.205 13.091,0.942 19.662,0.924 10.625,-0.028 21.251,-0.019 31.877,0.007 2.873,0.007 5.747,0.113 8.62,0.206 5.396,0.174 8.49,2.483 10.813,8.03 0.804,-1.128 1.159,-4.071 0.755,-6.263 C 55.284,57.542 51.475,54.435 45.498,54.198 32.88,53.697 20.255,54.051 7.634,53.934 6.953,53.927 6.272,53.887 5.591,53.863 c -2.295,10e-4 -4.59,10e-4 -6.884,10e-4 -0.729,0.024 -1.465,-0.004 -2.186,0.084 -1.197,0.146 -1.58,-0.281 -1.558,-1.52 0.076,-4.381 0.036,-8.764 0.031,-13.145 C -5.02,28.328 -5.039,17.373 -5.054,6.418 -5.057,4.667 -4.482,3.188 -3.007,2.142 -2.294,1.022 -0.991,0.73 0,0" /></g><g
           transform="translate(460.8489,512.0776)"
           id="g32"><path
             id="path34"
             style="fill:#373535;fill-opacity:1;fill-rule:nonzero;stroke:none"
             d="m 0,0 c -0.669,-0.431 -1.279,-0.818 -1.874,-1.205 -2.068,-1.339 -3.139,-3.124 -3.125,-5.713 0.075,-15.501 0.06,-31.002 0.075,-46.504 0,-5.311 -0.03,-10.637 0,-15.948 0.015,-1.011 -0.283,-1.324 -1.309,-1.324 -16.097,0.06 -32.178,0.06 -48.26,0.105 -1.265,0.014 -2.544,0.163 -3.779,0.401 -6.947,1.414 -9.283,6.546 -8.45,12.66 0.09,0.744 0.015,1.577 0.67,2.172 0.178,-0.491 0.402,-0.967 0.55,-1.473 0.417,-1.428 1.012,-2.707 2.351,-3.525 0.193,-0.209 0.357,-0.447 0.58,-0.625 2.499,-1.979 5.445,-2.529 8.495,-2.589 5.117,-0.089 10.235,-0.104 15.352,-0.104 8.42,-0.015 16.855,0 25.276,0.045 0.505,0 1.443,-0.342 1.472,0.446 0.06,1.666 0.402,3.377 -0.208,5.028 0.58,2.291 0.179,4.597 0.238,6.903 0.045,11.262 0.134,22.508 -0.193,33.77 -0.104,3.704 -0.179,7.409 0.52,11.083 C -10.652,-1.22 -4.999,1.964 0,0" /></g><g
           transform="translate(447.8089,377.8881)"
           id="g36"><path
             id="path38"
             style="fill:#373535;fill-opacity:1;fill-rule:nonzero;stroke:none"
             d="m 0,0 c -0.583,4.356 -0.499,8.392 0.039,12.398 1.137,8.461 4.088,16.209 9.487,22.914 6.922,8.596 15.856,13.787 26.729,15.638 4.672,0.796 9.389,0.934 14.119,0.932 14.135,-0.009 28.27,-0.016 42.405,0.048 2.518,0.012 5.083,-0.034 7.522,0.805 3.192,1.097 5.715,2.908 6.632,6.391 0.09,0.34 -0.006,0.815 0.466,0.998 1.864,-4.668 0.812,-12.318 -6.341,-14.373 C 98.454,45.003 95.784,44.879 93.102,44.877 78.285,44.864 63.461,45.116 48.651,44.773 35.065,44.458 22.965,40.003 13.463,29.835 7.673,23.638 4.345,16.088 2.01,8.056 1.27,5.51 0.719,2.909 0,0" /></g><g
           transform="translate(497.9813,509.3281)"
           id="g40"><path
             id="path42"
             style="fill:#ee3638;fill-opacity:1;fill-rule:nonzero;stroke:none"
             d="m 0,0 c 0.507,1.262 1.833,1.531 2.763,2.28 3.82,-1.359 5.435,-4.277 5.826,-8.118 0.287,-2.82 0.305,-5.64 0.228,-8.465 C 8.51,-25.455 8.642,-36.61 8.562,-47.764 c -0.008,-1.199 0.455,-1.307 1.443,-1.306 10.034,0.012 20.068,0 30.102,-0.047 3.092,-0.015 6.202,0.023 9.271,-0.29 2.98,-0.304 5.914,-1.034 7.782,-3.78 -0.715,-1.631 -0.947,-3.525 -2.535,-4.682 -0.112,-0.082 -0.26,-0.113 -0.392,-0.168 -2.41,1.467 -5.081,1.825 -7.834,1.894 -14.422,0.362 -28.846,0.13 -43.269,0.141 -1.199,0.001 -1.519,0.307 -1.507,1.528 0.165,16.517 -0.219,33.035 0.163,49.551 C 1.829,-3.032 1.369,-1.36 0,0" /></g><g
           transform="translate(498.2943,405.1404)"
           id="g44"><path
             id="path46"
             style="fill:#ee3638;fill-opacity:1;fill-rule:nonzero;stroke:none"
             d="m 0,0 c 2.295,0 4.59,0 6.885,-0.001 -0.074,-12.62 0.036,-25.238 0.223,-37.856 0.05,-3.36 0.153,-6.724 -0.581,-10.042 -0.655,-2.956 -2.441,-4.897 -5.234,-5.965 -0.99,0.73 -2.293,1.022 -3.007,2.142 1.35,1.36 1.848,3.003 1.791,4.904 -0.092,3.109 -0.119,6.222 -0.118,9.333 C -0.039,-24.99 -0.016,-12.495 0,0" /></g><g
           transform="translate(448.6649,453.9249)"
           id="g48"><path
             id="path50"
             style="fill:#ee3638;fill-opacity:1;fill-rule:nonzero;stroke:none"
             d="m 0,0 c -0.104,0 -0.223,0 -0.342,-0.015 -2.172,-0.282 -4.359,-0.119 -6.546,-0.104 -3.645,0.015 -7.289,-0.178 -10.934,0.104 -8.941,0.149 -17.897,0.03 -26.838,-0.238 -2.246,-0.074 -4.433,-0.565 -6.307,-1.949 -1.339,0.818 -1.934,2.098 -2.351,3.526 -0.148,0.506 -0.372,0.982 -0.55,1.473 1.8,2.469 4.463,3.317 7.289,3.764 3.035,0.491 6.115,0.297 9.179,0.297 12.541,0.03 25.097,0.03 37.638,0.045 C 0.178,4.597 0.58,2.291 0,0" /></g><g
           transform="translate(793.7922,274.2128)"
           id="g52"><path
             id="path54"
             style="fill:#ee3638;fill-opacity:1;fill-rule:nonzero;stroke:none"
             d="m 0,0 c 0,-0.927 0.751,-1.678 1.678,-1.678 h 3.08 c 1.405,0 2.46,0.343 3.163,1.032 0.703,0.688 1.055,1.66 1.055,2.917 0,1.197 -0.352,2.139 -1.055,2.828 C 7.218,5.787 6.163,6.131 4.758,6.131 H 1.841 C 0.824,6.131 0,5.307 0,4.29 Z M 7.541,-17.456 2.17,-7.707 C 1.966,-7.338 1.578,-7.109 1.157,-7.109 0.518,-7.109 0,-7.627 0,-8.266 v -8.058 c 0,-1.479 -1.199,-2.678 -2.678,-2.678 h -2.941 c -1.135,0 -2.056,0.92 -2.056,2.056 V 9.617 c 0,1.594 1.293,2.887 2.887,2.887 h 9.994 c 2.483,0 4.6,-0.434 6.351,-1.302 1.75,-0.868 3.059,-2.057 3.927,-3.568 0.867,-1.511 1.301,-3.194 1.301,-5.049 0,-2.094 -0.591,-3.964 -1.772,-5.61 -0.952,-1.325 -2.268,-2.34 -3.947,-3.044 -0.655,-0.275 -0.938,-1.046 -0.581,-1.66 l 4.412,-7.57 c 0.957,-1.642 -0.228,-3.703 -2.128,-3.703 h -2.611 c -1.089,0 -2.091,0.592 -2.617,1.546" /></g><g
           transform="translate(826.0159,270.9637)"
           id="g56"><path
             id="path58"
             style="fill:none;stroke:#ee3638;stroke-width:5;stroke-linecap:butt;stroke-linejoin:miter;stroke-miterlimit:10;stroke-dasharray:none;stroke-opacity:1"
             d="m 0,0 c 0,-15.206 -12.327,-27.534 -27.534,-27.534 -15.206,0 -27.533,12.328 -27.533,27.534 0,15.206 12.327,27.534 27.533,27.534 C -12.327,27.534 0,15.206 0,0 Z" /></g></g></g><text
       id="text62"
       style="font-variant:normal;font-weight:bold;font-stretch:normal;font-size:82.2335968px;font-family:'Trajan Pro';-inkscape-font-specification:TrajanPro-Bold;writing-mode:lr-tb;fill:#ee3638;fill-opacity:1;fill-rule:nonzero;stroke:none"
       transform="matrix(1,0,0,-1,175.7437,164.4209)"><tspan
         id="tspan60"
         y="0"
         x="0 66.198051 122.28136 174.25301 253.77289 335.7598 397.435 478.59955 548.49811">RESONANCE</tspan></text>
<g
       id="g64"><g
         clip-path="url(#clipPath70)"
         id="g66"><g
           transform="translate(189.23,188.0215)"
           id="g72"><path
             id="path74"
             style="fill:none;stroke:#ee3638;stroke-width:3;stroke-linecap:butt;stroke-linejoin:miter;stroke-miterlimit:10;stroke-dasharray:none;stroke-opacity:1"
             d="m 0,0 c 0,-7.565 0,-14.062 -0.411,-17.516 -0.329,-2.384 -0.74,-4.193 -2.385,-4.522 -0.74,-0.164 -1.727,-0.329 -2.96,-0.329 -0.987,0 -1.316,-0.247 -1.316,-0.658 0,-0.576 0.575,-0.823 1.645,-0.823 3.289,0 8.469,0.247 10.032,0.247 1.233,0 7.319,-0.247 12.088,-0.247 1.069,0 1.645,0.247 1.645,0.823 0,0.411 -0.329,0.658 -0.987,0.658 -0.987,0 -2.796,0.165 -4.029,0.329 -2.467,0.329 -2.961,2.138 -3.207,4.522 -0.411,3.454 -0.411,9.951 -0.411,17.599 v 1.151 c 0,0.494 0.246,0.658 0.657,0.658 l 7.155,-0.164 c 0.575,0 1.069,-0.082 1.48,-0.577 1.069,-1.233 4.852,-6.825 8.141,-11.347 4.605,-6.332 7.73,-10.198 11.266,-12.089 2.138,-1.152 4.194,-1.563 8.799,-1.563 h 7.812 c 0.987,0 1.563,0.165 1.563,0.823 0,0.411 -0.329,0.658 -0.987,0.658 -0.658,0 -1.398,0.082 -2.303,0.247 -1.233,0.246 -4.605,0.822 -9.21,5.592 -4.851,5.098 -10.526,12.417 -17.845,21.627 8.306,6.743 10.855,12.335 10.855,18.421 0,5.509 -3.289,9.703 -5.591,11.265 -4.441,3.043 -9.951,3.536 -15.132,3.536 -2.549,0 -8.799,-0.247 -11.594,-0.247 -1.728,0 -6.908,0.247 -11.267,0.247 -1.233,0 -1.809,-0.164 -1.809,-0.74 0,-0.575 0.494,-0.74 1.398,-0.74 1.152,0 2.55,-0.082 3.207,-0.246 2.714,-0.576 3.372,-1.892 3.536,-4.688 C 0,29.275 0,26.973 0,14.474 Z m 9.704,32.977 c 0,0.657 0.164,0.986 0.74,1.15 0.822,0.247 2.302,0.329 4.358,0.329 4.852,0 12.582,-3.371 12.582,-15.049 0,-6.743 -2.385,-10.525 -4.852,-12.335 -1.48,-1.068 -2.549,-1.397 -5.839,-1.397 -2.055,0 -4.523,0.246 -6.249,0.822 -0.576,0.246 -0.74,0.575 -0.74,1.481 z" /></g><g
           transform="translate(255.4282,188.0215)"
           id="g76"><path
             id="path78"
             style="fill:none;stroke:#ee3638;stroke-width:3;stroke-linecap:butt;stroke-linejoin:miter;stroke-miterlimit:10;stroke-dasharray:none;stroke-opacity:1"
             d="m 0,0 c 0,-7.565 0,-14.062 -0.411,-17.516 -0.329,-2.384 -0.74,-4.193 -2.385,-4.522 -0.74,-0.164 -1.727,-0.329 -2.96,-0.329 -0.987,0 -1.316,-0.247 -1.316,-0.658 0,-0.576 0.575,-0.823 1.645,-0.823 1.644,0 3.782,0.165 5.674,0.165 1.973,0.082 3.782,0.082 4.687,0.082 2.467,0 5.016,-0.082 8.552,-0.247 3.536,-0.082 8.059,-0.246 14.227,-0.246 3.124,0 3.865,0 4.44,2.138 0.411,1.644 1.069,7.236 1.069,9.128 0,0.822 0,1.48 -0.658,1.48 -0.575,0 -0.74,-0.329 -0.904,-1.233 -0.576,-3.372 -1.562,-5.099 -3.701,-6.086 -2.138,-0.986 -5.591,-0.986 -7.73,-0.986 -8.387,0 -9.703,1.233 -9.868,6.907 -0.082,2.385 0,9.95 0,12.746 v 6.497 c 0,0.493 0.083,0.822 0.494,0.822 1.974,0 10.115,-0.082 11.677,-0.247 3.043,-0.329 4.194,-1.562 4.605,-3.207 0.247,-1.068 0.247,-2.137 0.329,-2.96 0,-0.411 0.164,-0.74 0.74,-0.74 0.74,0 0.74,0.904 0.74,1.563 0,0.575 0.247,3.865 0.329,5.509 0.329,4.194 0.658,5.51 0.658,6.003 0,0.493 -0.246,0.657 -0.576,0.657 -0.411,0 -0.74,-0.411 -1.315,-1.068 -0.74,-0.822 -1.974,-1.069 -3.948,-1.233 -1.891,-0.165 -11.348,-0.165 -13.157,-0.165 -0.493,0 -0.576,0.329 -0.576,0.905 v 20.805 c 0,0.575 0.165,0.822 0.576,0.822 1.645,0 10.279,-0.164 11.677,-0.329 4.112,-0.493 4.934,-1.481 5.51,-2.96 0.411,-0.987 0.493,-2.385 0.493,-2.961 0,-0.74 0.165,-1.151 0.74,-1.151 0.576,0 0.741,0.494 0.823,0.905 0.164,0.986 0.329,4.604 0.411,5.427 0.246,3.783 0.658,4.769 0.658,5.345 0,0.411 -0.082,0.74 -0.494,0.74 -0.411,0 -0.904,-0.247 -1.316,-0.329 -0.657,-0.165 -1.973,-0.329 -3.536,-0.493 -1.562,-0.083 -17.926,-0.083 -20.558,-0.083 -1.151,0 -3.042,0.083 -5.18,0.165 -2.057,0 -4.441,0.082 -6.662,0.082 -1.233,0 -1.809,-0.164 -1.809,-0.74 0,-0.575 0.494,-0.74 1.398,-0.74 1.152,0 2.55,-0.082 3.207,-0.246 2.714,-0.576 3.372,-1.892 3.536,-4.688 C 0,29.275 0,26.973 0,14.474 Z" /></g><g
           transform="translate(318.9946,163.0225)"
           id="g80"><path
             id="path82"
             style="fill:none;stroke:#ee3638;stroke-width:3;stroke-linecap:butt;stroke-linejoin:miter;stroke-miterlimit:10;stroke-dasharray:none;stroke-opacity:1"
             d="m 0,0 c 4.358,0 8.963,0.74 13.075,3.372 5.921,3.865 7.73,9.539 7.73,14.309 0,7.812 -3.536,13.486 -13.486,20.969 l -2.303,1.727 c -6.825,5.181 -8.717,8.06 -8.717,11.842 0,4.933 3.701,8.469 9.786,8.469 5.345,0 7.73,-2.466 8.963,-4.029 1.727,-2.138 2.139,-4.687 2.139,-5.427 0,-0.987 0.246,-1.48 0.822,-1.48 0.658,0 0.905,0.657 0.905,2.467 0,6.414 0.329,8.799 0.329,9.868 0,0.575 -0.411,0.822 -1.152,0.986 -2.138,0.576 -5.591,1.399 -10.937,1.399 -11.43,0 -18.996,-6.496 -18.996,-15.542 0,-6.661 3.125,-12.418 12.171,-19.49 l 3.782,-2.961 c 6.826,-5.344 8.059,-9.127 8.059,-13.157 0,-4.358 -3.618,-9.375 -11.019,-9.375 -5.098,0 -9.95,2.221 -11.759,8.306 -0.412,1.398 -0.741,3.125 -0.741,4.194 0,0.658 -0.082,1.398 -0.822,1.398 -0.658,0 -0.904,-0.905 -0.987,-2.138 -0.082,-1.315 -0.411,-6.25 -0.411,-10.772 0,-1.81 0.247,-2.221 1.563,-2.796 C -8.47,0.576 -4.77,0 0,0 Z" /></g><g
           transform="translate(387.6597,163.0225)"
           id="g84"><path
             id="path86"
             style="fill:none;stroke:#ee3638;stroke-width:3;stroke-linecap:butt;stroke-linejoin:miter;stroke-miterlimit:10;stroke-dasharray:none;stroke-opacity:1"
             d="m 0,0 c 20.887,0 34.044,14.885 34.044,33.716 0,18.832 -12.746,30.756 -33.222,30.756 -24.67,0 -33.962,-18.174 -33.962,-32.236 C -33.14,17.681 -23.601,0 0,0 Z m 3.454,4.112 c -15.789,0 -25.246,13.569 -25.246,30.673 0,20.477 10.772,25.739 20.23,25.739 13.486,0 24.094,-11.43 24.094,-29.85 C 22.532,6.908 9.21,4.112 3.454,4.112 Z" /></g><g
           transform="translate(446.7036,209.8965)"
           id="g88"><path
             id="path90"
             style="fill:none;stroke:#ee3638;stroke-width:3;stroke-linecap:butt;stroke-linejoin:miter;stroke-miterlimit:10;stroke-dasharray:none;stroke-opacity:1"
             d="m 0,0 h 0.247 c 1.48,-1.562 10.607,-11.842 19.571,-20.724 8.553,-8.469 19.078,-19.242 24.259,-24.176 0.904,-0.905 1.891,-1.809 2.796,-1.809 0.74,0 1.069,0.74 1.069,2.549 l 0.905,51.889 c 0.082,4.606 0.739,6.333 3.042,6.991 0.987,0.246 1.645,0.246 2.467,0.246 0.987,0 1.48,0.247 1.48,0.74 0,0.658 -0.822,0.74 -1.891,0.74 -4.029,0 -7.154,-0.247 -8.059,-0.247 -1.727,0 -5.674,0.247 -9.95,0.247 -1.234,0 -2.138,-0.082 -2.138,-0.74 0,-0.493 0.329,-0.74 1.316,-0.74 1.151,0 3.124,0 4.358,-0.493 1.973,-0.823 2.714,-2.385 2.796,-7.402 L 43.09,-29.852 H 42.679 C 41.281,-28.535 30.18,-16.693 24.587,-11.102 12.582,0.822 0.082,14.226 -0.905,15.295 c -1.398,1.48 -2.138,2.55 -3.042,2.55 -0.823,0 -1.07,-1.152 -1.07,-2.797 l -0.739,-48.682 c -0.083,-7.154 -0.411,-9.539 -2.55,-10.197 -1.151,-0.329 -2.632,-0.411 -3.7,-0.411 -0.823,0 -1.316,-0.164 -1.316,-0.658 0,-0.74 0.74,-0.823 1.809,-0.823 4.276,0 8.141,0.247 8.881,0.247 1.563,0 4.852,-0.247 10.197,-0.247 1.152,0 1.892,0.165 1.892,0.823 0,0.494 -0.494,0.658 -1.398,0.658 -1.316,0 -2.878,0.082 -4.276,0.576 -1.645,0.575 -2.714,2.713 -2.879,9.128 z" /></g><g
           transform="translate(546.6162,185.6367)"
           id="g92"><path
             id="path94"
             style="fill:none;stroke:#ee3638;stroke-width:3;stroke-linecap:butt;stroke-linejoin:miter;stroke-miterlimit:10;stroke-dasharray:none;stroke-opacity:1"
             d="m 0,0 c 0.411,0 0.658,-0.164 0.823,-0.575 l 6.578,-17.434 c 0.411,-0.986 -0.164,-1.726 -0.74,-1.891 -0.822,-0.082 -1.151,-0.246 -1.151,-0.741 0,-0.575 0.987,-0.575 2.468,-0.657 6.578,-0.165 12.581,-0.165 15.542,-0.165 3.042,0 3.782,0.165 3.782,0.822 0,0.577 -0.411,0.659 -1.069,0.659 -0.987,0 -2.22,0.082 -3.454,0.329 -1.727,0.411 -4.112,1.562 -7.236,8.964 -5.264,12.499 -18.421,46.05 -20.395,50.573 -0.822,1.891 -1.315,2.632 -2.055,2.632 -0.822,0 -1.316,-0.906 -2.303,-3.29 l -20.641,-51.643 c -1.644,-4.111 -3.207,-6.907 -6.989,-7.4 -0.658,-0.083 -1.809,-0.165 -2.55,-0.165 -0.657,0 -0.986,-0.164 -0.986,-0.659 0,-0.657 0.493,-0.822 1.563,-0.822 4.275,0 8.798,0.247 9.703,0.247 2.549,0 6.085,-0.247 8.716,-0.247 0.905,0 1.399,0.165 1.399,0.822 0,0.495 -0.247,0.659 -1.234,0.659 h -1.234 c -2.549,0 -3.289,1.069 -3.289,2.549 0,0.987 0.411,2.96 1.233,5.016 l 4.441,11.76 c 0.165,0.493 0.329,0.657 0.74,0.657 z m -16.693,4.112 c -0.328,0 -0.411,0.246 -0.328,0.575 l 7.565,20.23 c 0.082,0.329 0.246,0.74 0.493,0.74 0.247,0 0.329,-0.411 0.411,-0.74 L -1.15,4.605 c 0.082,-0.247 0,-0.493 -0.412,-0.493 z" /></g><g
           transform="translate(590.3652,209.8965)"
           id="g96"><path
             id="path98"
             style="fill:none;stroke:#ee3638;stroke-width:3;stroke-linecap:butt;stroke-linejoin:miter;stroke-miterlimit:10;stroke-dasharray:none;stroke-opacity:1"
             d="m 0,0 h 0.247 c 1.481,-1.562 10.608,-11.842 19.571,-20.724 8.553,-8.469 19.078,-19.242 24.259,-24.176 0.905,-0.905 1.892,-1.809 2.796,-1.809 0.74,0 1.069,0.74 1.069,2.549 l 0.905,51.889 c 0.083,4.606 0.74,6.333 3.043,6.991 0.987,0.246 1.644,0.246 2.466,0.246 0.988,0 1.481,0.247 1.481,0.74 0,0.658 -0.822,0.74 -1.892,0.74 -4.029,0 -7.154,-0.247 -8.058,-0.247 -1.727,0 -5.674,0.247 -9.95,0.247 -1.234,0 -2.139,-0.082 -2.139,-0.74 0,-0.493 0.329,-0.74 1.316,-0.74 1.152,0 3.125,0 4.359,-0.493 1.973,-0.823 2.714,-2.385 2.796,-7.402 l 0.822,-36.923 H 42.68 c -1.399,1.317 -12.5,13.159 -18.092,18.75 C 12.582,0.822 0.083,14.226 -0.904,15.295 c -1.399,1.48 -2.138,2.55 -3.043,2.55 -0.823,0 -1.069,-1.152 -1.069,-2.797 l -0.74,-48.682 c -0.082,-7.154 -0.411,-9.539 -2.55,-10.197 -1.151,-0.329 -2.631,-0.411 -3.7,-0.411 -0.822,0 -1.315,-0.164 -1.315,-0.658 0,-0.74 0.74,-0.823 1.808,-0.823 4.277,0 8.142,0.247 8.882,0.247 1.563,0 4.852,-0.247 10.196,-0.247 1.152,0 1.892,0.165 1.892,0.823 0,0.494 -0.493,0.658 -1.397,0.658 -1.317,0 -2.879,0.082 -4.277,0.576 -1.644,0.575 -2.714,2.713 -2.878,9.128 z" /></g><g
           transform="translate(697.2686,163.0225)"
           id="g100"><path
             id="path102"
             style="fill:none;stroke:#ee3638;stroke-width:3;stroke-linecap:butt;stroke-linejoin:miter;stroke-miterlimit:10;stroke-dasharray:none;stroke-opacity:1"
             d="m 0,0 c 5.263,0 11.513,0.576 14.802,1.892 1.398,0.576 1.727,0.987 2.138,2.384 0.823,2.796 1.809,9.951 1.809,10.938 0,0.657 -0.164,1.233 -0.739,1.233 -0.658,0 -0.823,-0.329 -1.07,-1.644 C 16.611,13.322 15.542,10.938 14.145,9.375 10.854,5.593 6.414,4.77 -0.904,4.77 c -11.02,0 -25.904,9.704 -25.904,29.275 0,7.976 1.563,15.789 7.566,21.299 3.618,3.289 8.305,5.098 15.46,5.098 7.565,0 13.979,-2.22 16.693,-5.098 2.056,-2.138 3.125,-5.017 3.207,-7.566 0,-1.151 0.164,-1.809 0.822,-1.809 0.741,0 0.905,0.658 0.987,1.891 0.165,1.645 0.083,6.168 0.247,8.881 0.164,2.879 0.411,3.865 0.411,4.524 0,0.493 -0.329,0.904 -1.233,0.986 -2.467,0.247 -5.099,0.987 -8.224,1.398 -3.782,0.494 -6.825,0.823 -11.924,0.823 -12.253,0 -20.064,-3.289 -25.985,-8.717 -7.895,-7.236 -9.622,-16.941 -9.622,-22.532 0,-7.977 2.138,-17.187 10.197,-24.259 C -20.723,2.468 -11.266,0 0,0 Z" /></g><g
           transform="translate(737.7275,188.0215)"
           id="g104"><path
             id="path106"
             style="fill:none;stroke:#ee3638;stroke-width:3;stroke-linecap:butt;stroke-linejoin:miter;stroke-miterlimit:10;stroke-dasharray:none;stroke-opacity:1"
             d="m 0,0 c 0,-7.565 0,-14.062 -0.411,-17.516 -0.329,-2.384 -0.74,-4.193 -2.385,-4.522 -0.74,-0.164 -1.726,-0.329 -2.961,-0.329 -0.986,0 -1.315,-0.247 -1.315,-0.658 0,-0.576 0.576,-0.823 1.644,-0.823 1.645,0 3.783,0.165 5.675,0.165 1.974,0.082 3.782,0.082 4.687,0.082 2.467,0 5.016,-0.082 8.552,-0.247 3.536,-0.082 8.059,-0.246 14.227,-0.246 3.125,0 3.865,0 4.44,2.138 0.411,1.644 1.07,7.236 1.07,9.128 0,0.822 0,1.48 -0.659,1.48 -0.575,0 -0.74,-0.329 -0.904,-1.233 -0.576,-3.372 -1.562,-5.099 -3.701,-6.086 -2.138,-0.986 -5.592,-0.986 -7.73,-0.986 -8.387,0 -9.704,1.233 -9.868,6.907 -0.082,2.385 0,9.95 0,12.746 v 6.497 c 0,0.493 0.082,0.822 0.493,0.822 1.974,0 10.116,-0.082 11.678,-0.247 3.042,-0.329 4.194,-1.562 4.605,-3.207 0.247,-1.068 0.247,-2.137 0.329,-2.96 0,-0.411 0.165,-0.74 0.74,-0.74 0.74,0 0.74,0.904 0.74,1.563 0,0.575 0.247,3.865 0.329,5.509 0.329,4.194 0.658,5.51 0.658,6.003 0,0.493 -0.246,0.657 -0.576,0.657 -0.411,0 -0.74,-0.411 -1.315,-1.068 -0.74,-0.822 -1.974,-1.069 -3.947,-1.233 -1.892,-0.165 -11.349,-0.165 -13.157,-0.165 -0.495,0 -0.577,0.329 -0.577,0.905 v 20.805 c 0,0.575 0.164,0.822 0.577,0.822 1.644,0 10.278,-0.164 11.676,-0.329 4.112,-0.493 4.934,-1.481 5.51,-2.96 0.411,-0.987 0.493,-2.385 0.493,-2.961 0,-0.74 0.164,-1.151 0.74,-1.151 0.576,0 0.741,0.494 0.823,0.905 0.164,0.986 0.329,4.604 0.411,5.427 0.247,3.783 0.658,4.769 0.658,5.345 0,0.411 -0.083,0.74 -0.494,0.74 -0.411,0 -0.904,-0.247 -1.316,-0.329 -0.658,-0.165 -1.973,-0.329 -3.536,-0.493 -1.562,-0.083 -17.926,-0.083 -20.558,-0.083 -1.151,0 -3.042,0.083 -5.181,0.165 -2.056,0 -4.44,0.082 -6.66,0.082 -1.233,0 -1.81,-0.164 -1.81,-0.74 0,-0.575 0.494,-0.74 1.399,-0.74 1.15,0 2.549,-0.082 3.207,-0.246 2.713,-0.576 3.371,-1.892 3.536,-4.688 C 0,29.275 0,26.973 0,14.474 Z" /></g></g></g><text
       id="text110"
       style="font-variant:normal;font-weight:normal;font-stretch:normal;font-size:66.86190033px;font-family:'Arial Rounded MT Bold';-inkscape-font-specification:ArialRoundedMTBold;writing-mode:lr-tb;fill:#292929;fill-opacity:1;fill-rule:nonzero;stroke:none"
       transform="matrix(1,0,0,-1,253.0586,88.0674)"><tspan
         id="tspan108"
         y="0"
         x="0 57.501232 108.78431 163.5442 210.61499 238.22894 295.73019 353.70615 381.3201 427.72226">HEALING.ai</tspan></text>
<g
       id="g112"><g
         clip-path="url(#clipPath118)"
         id="g114"><g
           transform="translate(266.689,135.292)"
           id="g120"><path
             id="path122"
             style="fill:none;stroke:#292929;stroke-width:2;stroke-linecap:butt;stroke-linejoin:miter;stroke-miterlimit:10;stroke-dasharray:none;stroke-opacity:1"
             d="m 0,0 c -0.903,0.968 -2.084,1.453 -3.542,1.453 -1.48,0 -2.65,-0.49 -3.51,-1.47 -0.86,-0.979 -1.289,-2.448 -1.289,-4.407 v -37.708 c 0,-1.959 0.435,-3.433 1.305,-4.424 0.87,-0.99 2.035,-1.485 3.494,-1.485 1.436,0 2.611,0.49 3.525,1.47 0.915,0.979 1.372,2.459 1.372,4.439 v 16.096 h 20.927 v -16.096 c 0,-1.959 0.435,-3.433 1.306,-4.424 0.87,-0.99 2.035,-1.485 3.493,-1.485 1.437,0 2.612,0.49 3.526,1.47 0.914,0.979 1.371,2.459 1.371,4.439 v 37.708 c 0,1.981 -0.452,3.455 -1.355,4.424 -0.903,0.968 -2.084,1.453 -3.542,1.453 -1.436,0 -2.596,-0.49 -3.477,-1.47 -0.881,-0.979 -1.322,-2.448 -1.322,-4.407 V -18.136 H 1.355 V -4.424 C 1.355,-2.443 0.903,-0.969 0,0 Z" /></g><g
           transform="translate(350.749,129.4805)"
           id="g124"><path
             id="path126"
             style="fill:none;stroke:#292929;stroke-width:2;stroke-linecap:butt;stroke-linejoin:miter;stroke-miterlimit:10;stroke-dasharray:none;stroke-opacity:1"
             d="M 0,0 C 0.751,0.686 1.126,1.595 1.126,2.727 1.126,3.836 0.751,4.734 0,5.42 -0.75,6.105 -1.899,6.448 -3.444,6.448 H -29.04 c -1.371,0 -2.497,-0.202 -3.378,-0.604 -0.882,-0.403 -1.53,-1.044 -1.943,-1.926 -0.414,-0.882 -0.62,-2.02 -0.62,-3.412 v -35.978 c 0,-2.089 0.461,-3.601 1.387,-4.537 0.925,-0.936 2.443,-1.404 4.554,-1.404 h 26.347 c 1.523,0 2.672,0.353 3.444,1.061 0.772,0.706 1.159,1.626 1.159,2.758 0,1.176 -0.387,2.117 -1.159,2.824 -0.772,0.707 -1.921,1.062 -3.444,1.062 h -22.592 v 13.613 h 20.111 c 1.501,0 2.611,0.343 3.33,1.029 0.718,0.686 1.077,1.572 1.077,2.661 0,1.088 -0.365,1.964 -1.094,2.628 -0.729,0.664 -1.833,0.996 -3.313,0.996 H -25.285 V -1.028 H -3.444 C -1.899,-1.028 -0.75,-0.686 0,0 Z" /></g><g
           transform="translate(398.7671,90.9238)"
           id="g128"><path
             id="path130"
             style="fill:none;stroke:#292929;stroke-width:2;stroke-linecap:butt;stroke-linejoin:miter;stroke-miterlimit:10;stroke-dasharray:none;stroke-opacity:1"
             d="m 0,0 c 0.424,-0.969 0.821,-1.687 1.192,-2.154 0.37,-0.469 0.827,-0.838 1.371,-1.111 0.544,-0.271 1.197,-0.408 1.959,-0.408 1.306,0 2.421,0.463 3.346,1.388 0.925,0.925 1.388,1.942 1.388,3.053 0,1.066 -0.49,2.774 -1.469,5.125 L -4.717,36.777 c -0.588,1.545 -1.073,2.781 -1.453,3.706 -0.381,0.925 -0.849,1.79 -1.404,2.595 -0.555,0.806 -1.284,1.464 -2.187,1.976 -0.904,0.51 -2.03,0.767 -3.38,0.767 -1.327,0 -2.443,-0.257 -3.346,-0.767 -0.903,-0.512 -1.632,-1.181 -2.187,-2.008 -0.555,-0.827 -1.077,-1.866 -1.567,-3.118 -0.49,-1.252 -0.909,-2.324 -1.257,-3.216 L -33.741,5.632 c -0.501,-1.24 -0.86,-2.209 -1.077,-2.905 -0.218,-0.698 -0.327,-1.372 -0.327,-2.025 0,-1.132 0.468,-2.143 1.404,-3.036 0.935,-0.893 2.013,-1.339 3.232,-1.339 1.437,0 2.47,0.42 3.102,1.257 0.631,0.838 1.392,2.454 2.285,4.849 l 2.285,6.137 H -3.379 L -1.094,2.563 C -0.789,1.823 -0.424,0.969 0,0 Z M -13.206,35.603 -5.991,15.851 H -20.29 Z" /></g><g
           transform="translate(429.9717,135.292)"
           id="g132"><path
             id="path134"
             style="fill:none;stroke:#292929;stroke-width:2;stroke-linecap:butt;stroke-linejoin:miter;stroke-miterlimit:10;stroke-dasharray:none;stroke-opacity:1"
             d="m 0,0 c -0.903,0.968 -2.084,1.453 -3.542,1.453 -1.437,0 -2.596,-0.49 -3.477,-1.47 -0.882,-0.979 -1.322,-2.448 -1.322,-4.407 v -36.859 c 0,-2.089 0.462,-3.602 1.387,-4.537 0.925,-0.937 2.443,-1.405 4.555,-1.405 h 23.408 c 1.588,0 2.796,0.365 3.623,1.094 0.827,0.729 1.241,1.682 1.241,2.857 0,1.153 -0.419,2.111 -1.257,2.873 -0.838,0.761 -2.04,1.142 -3.607,1.142 H 1.355 V -4.424 C 1.355,-2.443 0.903,-0.969 0,0 Z" /></g><g
           transform="translate(470.644,88.7363)"
           id="g136"><path
             id="path138"
             style="fill:none;stroke:#292929;stroke-width:2;stroke-linecap:butt;stroke-linejoin:miter;stroke-miterlimit:10;stroke-dasharray:none;stroke-opacity:1"
             d="m 0,0 c 0.903,-0.99 2.051,-1.485 3.444,-1.485 1.458,0 2.639,0.49 3.542,1.469 0.904,0.98 1.355,2.459 1.355,4.44 v 37.708 c 0,1.98 -0.451,3.455 -1.355,4.424 -0.903,0.967 -2.084,1.453 -3.542,1.453 -1.415,0 -2.568,-0.49 -3.46,-1.47 -0.893,-0.979 -1.339,-2.448 -1.339,-4.407 V 4.424 C -1.355,2.465 -0.903,0.99 0,0 Z" /></g><g
           transform="translate(507.627,133.3164)"
           id="g140"><path
             id="path142"
             style="fill:none;stroke:#292929;stroke-width:2;stroke-linecap:butt;stroke-linejoin:miter;stroke-miterlimit:10;stroke-dasharray:none;stroke-opacity:1"
             d="m 0,0 c -0.489,0.762 -0.969,1.382 -1.437,1.861 -0.467,0.479 -1.011,0.86 -1.631,1.143 -0.621,0.282 -1.367,0.425 -2.237,0.425 -1.11,0 -2.144,-0.311 -3.101,-0.931 -0.958,-0.62 -1.644,-1.42 -2.057,-2.399 -0.349,-0.894 -0.523,-2.122 -0.523,-3.69 v -36.925 c 0,-1.806 0.414,-3.182 1.241,-4.13 0.827,-0.946 1.926,-1.419 3.298,-1.419 1.327,0 2.415,0.468 3.264,1.404 0.849,0.935 1.273,2.317 1.273,4.145 v 28.045 l 18.185,-27.881 c 0.522,-0.762 1.044,-1.507 1.567,-2.236 0.522,-0.729 1.088,-1.366 1.698,-1.91 0.608,-0.544 1.262,-0.941 1.958,-1.191 0.697,-0.25 1.481,-0.376 2.352,-0.376 3.481,0 5.222,2.1 5.222,6.3 v 37.643 c 0,1.85 -0.402,3.237 -1.207,4.163 C 27.06,2.966 25.96,3.429 24.567,3.429 23.218,3.429 22.146,2.966 21.352,2.041 20.557,1.115 20.16,-0.272 20.16,-2.122 V -30.59 L 1.519,-2.383 C 0.996,-1.556 0.49,-0.762 0,0 Z" /></g><g
           transform="translate(596.8457,111.2471)"
           id="g144"><path
             id="path146"
             style="fill:none;stroke:#292929;stroke-width:2;stroke-linecap:butt;stroke-linejoin:miter;stroke-miterlimit:10;stroke-dasharray:none;stroke-opacity:1"
             d="m 0,0 c -0.577,0.827 -1.333,1.36 -2.269,1.6 -0.936,0.239 -2.079,0.359 -3.428,0.359 h -11.002 c -1.328,0 -2.378,-0.349 -3.151,-1.045 -0.772,-0.696 -1.159,-1.578 -1.159,-2.644 0,-1.306 0.463,-2.232 1.388,-2.775 0.925,-0.545 2.29,-0.816 4.098,-0.816 h 7.508 v -7.771 c -2.024,-1.089 -4.021,-1.926 -5.991,-2.513 -1.97,-0.588 -4.075,-0.882 -6.317,-0.882 -4.614,0 -8.211,1.512 -10.79,4.538 -2.579,3.025 -3.868,7.345 -3.868,12.961 0,2.59 0.331,4.951 0.995,7.085 0.664,2.132 1.622,3.933 2.873,5.403 1.252,1.469 2.759,2.59 4.522,3.362 1.763,0.773 3.765,1.159 6.007,1.159 2.176,0 3.967,-0.326 5.37,-0.979 1.404,-0.653 2.52,-1.458 3.347,-2.416 0.827,-0.958 1.839,-2.372 3.036,-4.244 0.435,-0.588 0.974,-1.045 1.616,-1.371 0.642,-0.326 1.311,-0.49 2.008,-0.49 1.262,0 2.345,0.429 3.248,1.29 0.903,0.859 1.355,1.898 1.355,3.118 0,1.131 -0.392,2.426 -1.175,3.884 -0.784,1.458 -1.949,2.84 -3.493,4.147 -1.546,1.306 -3.559,2.388 -6.041,3.248 -2.48,0.859 -5.332,1.29 -8.553,1.29 -3.917,0 -7.422,-0.571 -10.512,-1.715 -3.091,-1.142 -5.714,-2.791 -7.868,-4.945 -2.155,-2.155 -3.787,-4.778 -4.898,-7.868 -1.11,-3.091 -1.665,-6.497 -1.665,-10.219 0,-3.787 0.572,-7.215 1.714,-10.284 1.143,-3.069 2.781,-5.681 4.914,-7.835 2.133,-2.155 4.712,-3.799 7.738,-4.93 3.024,-1.132 6.377,-1.698 10.054,-1.698 3.157,0 6.074,0.359 8.75,1.077 2.677,0.719 5.463,1.861 8.358,3.429 1.001,0.544 1.823,1.109 2.465,1.697 0.641,0.588 1.083,1.246 1.322,1.976 0.239,0.728 0.359,1.702 0.359,2.921 v 9.174 C 0.865,-2.068 0.576,-0.827 0,0 Z" /></g><g
           transform="translate(620.6709,88.5732)"
           id="g148"><path
             id="path150"
             style="fill:none;stroke:#292929;stroke-width:2;stroke-linecap:butt;stroke-linejoin:miter;stroke-miterlimit:10;stroke-dasharray:none;stroke-opacity:1"
             d="m 0,0 c 0.969,0.882 1.453,2.095 1.453,3.641 0,1.348 -0.484,2.497 -1.453,3.444 -0.969,0.946 -2.138,1.42 -3.51,1.42 -1.371,0 -2.524,-0.48 -3.46,-1.437 -0.936,-0.958 -1.404,-2.1 -1.404,-3.427 0,-1.568 0.49,-2.787 1.47,-3.658 0.979,-0.87 2.143,-1.305 3.493,-1.305 1.306,0 2.442,0.441 3.411,1.322 z" /></g><g
           transform="translate(664.332,88.541)"
           id="g152"><path
             id="path154"
             style="fill:none;stroke:#292929;stroke-width:2;stroke-linecap:butt;stroke-linejoin:miter;stroke-miterlimit:10;stroke-dasharray:none;stroke-opacity:1"
             d="m 0,0 c 0.892,-0.859 1.795,-1.29 2.709,-1.29 1.089,0 2.062,0.376 2.922,1.127 0.86,0.751 1.29,1.583 1.29,2.497 0,0.522 -0.277,1.692 -0.832,3.51 -0.556,1.817 -0.833,3.563 -0.833,5.24 0.021,1.784 0.038,3.405 0.049,4.864 0.01,1.458 0.016,3.232 0.016,5.322 0,3.308 -0.463,5.962 -1.387,7.965 -0.925,2.002 -2.509,3.466 -4.75,4.392 -2.243,0.925 -5.322,1.387 -9.24,1.387 -3.505,0 -6.431,-0.479 -8.782,-1.437 -2.35,-0.957 -4.081,-2.176 -5.191,-3.656 -1.11,-1.481 -1.665,-3.003 -1.665,-4.57 0,-1.001 0.364,-1.824 1.093,-2.465 0.73,-0.643 1.595,-0.963 2.596,-0.963 1.11,0 1.834,0.2 2.171,0.603 0.338,0.403 0.914,1.236 1.73,2.498 0.817,1.262 1.796,2.208 2.939,2.84 1.143,0.631 2.846,0.948 5.109,0.948 2.633,0 4.369,-0.551 5.207,-1.65 0.838,-1.099 1.312,-2.823 1.42,-5.174 -1.872,-0.545 -3.607,-1.008 -5.207,-1.387 -1.599,-0.382 -3.52,-0.8 -5.761,-1.257 -2.243,-0.457 -3.647,-0.751 -4.212,-0.882 -2.7,-0.588 -4.822,-1.741 -6.367,-3.461 -1.545,-1.72 -2.318,-3.798 -2.318,-6.235 0,-1.807 0.468,-3.483 1.404,-5.028 0.936,-1.546 2.269,-2.77 3.999,-3.673 1.731,-0.903 3.739,-1.355 6.024,-1.355 2.503,0 4.761,0.42 6.774,1.257 2.013,0.838 4.098,2.095 6.252,3.771 C -1.84,2.105 -0.894,0.859 0,0 Z m -3.429,15.36 c 0,-3.09 -0.402,-5.31 -1.208,-6.66 -0.696,-1.219 -1.79,-2.215 -3.28,-2.987 -1.491,-0.773 -3.118,-1.159 -4.881,-1.159 -1.654,0 -2.993,0.473 -4.015,1.421 -1.024,0.946 -1.536,2.093 -1.536,3.444 0,1.306 0.436,2.322 1.307,3.052 0.87,0.729 1.784,1.218 2.742,1.469 0.957,0.25 2.682,0.642 5.175,1.175 2.491,0.533 4.391,1.039 5.696,1.519 z" /></g><g
           transform="translate(693.0225,122.1514)"
           id="g156"><path
             id="path158"
             style="fill:none;stroke:#292929;stroke-width:2;stroke-linecap:butt;stroke-linejoin:miter;stroke-miterlimit:10;stroke-dasharray:none;stroke-opacity:1"
             d="M 0,0 C -0.85,0.893 -1.927,1.339 -3.232,1.339 -4.538,1.339 -5.6,0.893 -6.416,0 -7.231,-0.893 -7.64,-2.22 -7.64,-3.983 V -29.48 c 0,-1.743 0.409,-3.081 1.224,-4.016 0.816,-0.936 1.878,-1.404 3.184,-1.404 1.305,0 2.382,0.457 3.232,1.371 0.849,0.914 1.272,2.263 1.272,4.049 V -3.722 C 1.272,-2.134 0.849,-0.893 0,0 Z m -0.033,6.644 c 0.87,0.772 1.305,1.844 1.305,3.215 0,1.415 -0.446,2.493 -1.337,3.233 -0.893,0.739 -1.916,1.109 -3.07,1.109 -1.197,0 -2.247,-0.407 -3.15,-1.223 -0.903,-0.817 -1.355,-1.857 -1.355,-3.119 0,-1.392 0.441,-2.47 1.323,-3.232 0.88,-0.762 1.942,-1.143 3.182,-1.143 1.198,0 2.232,0.387 3.102,1.16 z" /></g></g></g></g></svg>